<?xml version="1.0" encoding="UTF-8"?>
<!DOCTYPE svg PUBLIC "-//W3C//DTD SVG 1.1//EN" "http://www.w3.org/Graphics/SVG/1.1/DTD/svg11.dtd">
<svg xmlns="http://www.w3.org/2000/svg" version="1.1" width="512px" height="512px" style="shape-rendering:geometricPrecision; text-rendering:geometricPrecision; image-rendering:optimizeQuality; fill-rule:evenodd; clip-rule:evenodd" xmlns:xlink="http://www.w3.org/1999/xlink">
<g><path style="opacity:0.962" fill="#ffffff" d="M 129.5,16.5 C 160.935,31.7172 192.268,47.2172 223.5,63C 207.5,76.3333 191.5,89.6667 175.5,103C 174.5,103.667 173.5,103.667 172.5,103C 150.797,79.6319 129.463,55.9652 108.5,32C 115.568,26.8123 122.568,21.6456 129.5,16.5 Z"/></g>
<g><path style="opacity:0.967" fill="#ffffff" d="M 313.5,36.5 C 327.075,34.7014 336.575,40.0348 342,52.5C 344.548,63.3087 342.215,72.9754 335,81.5C 328.795,89.3727 321.628,96.2061 313.5,102C 257.967,138.947 200.3,172.614 140.5,203C 137.217,205.567 135.217,208.9 134.5,213C 136.915,232.321 139.248,251.654 141.5,271C 142.128,275.709 140.295,277.542 136,276.5C 128.468,261.265 120.301,246.432 111.5,232C 109.1,230.299 106.433,229.466 103.5,229.5C 92.1951,231.283 80.8617,232.45 69.5,233C 75.7112,223.414 81.5445,213.581 87,203.5C 87.6667,201.5 87.6667,199.5 87,197.5C 77.0422,184.607 66.3756,172.273 55,160.5C 51.7459,157.146 52.5792,154.812 57.5,153.5C 75.8333,162.667 94.1667,171.833 112.5,181C 116.452,181.912 120.119,181.245 123.5,179C 173.305,131.506 226.305,88.1726 282.5,49C 292.285,43.0947 302.619,38.928 313.5,36.5 Z"/></g>
<g><path style="opacity:0.96" fill="#ffffff" d="M 281.5,149.5 C 282.5,149.5 283.5,149.5 284.5,149.5C 287.836,182.695 291.503,215.862 295.5,249C 295.456,250.764 295.122,252.431 294.5,254C 287.97,258.696 281.303,263.196 274.5,267.5C 258.54,239.752 243.207,211.586 228.5,183C 228.759,181.739 229.426,180.739 230.5,180C 247.894,170.311 264.894,160.144 281.5,149.5 Z"/></g>
<g><path style="opacity:0.985" fill="#ffffff" d="M 511.5,195.5 C 511.5,223.833 511.5,252.167 511.5,280.5C 475.322,297.187 461.156,325.187 469,364.5C 475.825,386.49 489.992,401.49 511.5,409.5C 511.5,437.833 511.5,466.167 511.5,494.5C 468.167,494.5 424.833,494.5 381.5,494.5C 381.667,483.162 381.5,471.828 381,460.5C 377.412,452.567 371.578,450.4 363.5,454C 361.383,455.731 359.883,457.898 359,460.5C 358.5,471.828 358.333,483.162 358.5,494.5C 238.833,494.5 119.167,494.5 -0.5,494.5C -0.5,466.5 -0.5,438.5 -0.5,410.5C 28.8231,398.828 44.1564,377.162 45.5,345.5C 45.1966,322.727 36.1966,304.227 18.5,290C 12.7023,285.768 6.36901,282.601 -0.5,280.5C -0.5,252.167 -0.5,223.833 -0.5,195.5C 18.5029,195.333 37.5029,195.5 56.5,196C 58.5571,197.719 60.2237,199.719 61.5,202C 53.4661,215.9 45.2994,229.733 37,243.5C 34.1211,253.485 37.9544,259.151 48.5,260.5C 65.1087,257.34 81.7753,255.34 98.5,254.5C 106.921,269.675 115.088,285.008 123,300.5C 127.513,306.672 133.013,307.839 139.5,304C 145.833,299.667 152.167,295.333 158.5,291C 161.384,289.116 163.551,286.616 165,283.5C 163.292,262.13 161.292,240.797 159,219.5C 175.523,210.238 192.19,201.238 209,192.5C 209.772,192.645 210.439,192.978 211,193.5C 227.667,226.167 244.333,258.833 261,291.5C 265.546,295.749 270.713,296.582 276.5,294C 288.224,285.277 300.224,276.944 312.5,269C 315.384,267.116 317.551,264.616 319,261.5C 317.313,239.479 315.146,217.479 312.5,195.5C 327.833,195.5 343.167,195.5 358.5,195.5C 358.333,206.505 358.5,217.505 359,228.5C 362.693,236.773 368.526,238.939 376.5,235C 378.81,233.363 380.31,231.196 381,228.5C 381.5,217.505 381.667,206.505 381.5,195.5C 424.833,195.5 468.167,195.5 511.5,195.5 Z M 367.5,260.5 C 374.128,260.392 378.628,263.392 381,269.5C 381.667,286.833 381.667,304.167 381,321.5C 377.307,329.773 371.474,331.939 363.5,328C 361.383,326.269 359.883,324.102 359,321.5C 358.333,304.167 358.333,286.833 359,269.5C 360.688,265.315 363.521,262.315 367.5,260.5 Z M 91.5,321.5 C 147.501,321.333 203.501,321.5 259.5,322C 266.122,325.866 267.955,331.366 265,338.5C 262.658,341.754 259.491,343.588 255.5,344C 202.167,344.667 148.833,344.667 95.5,344C 85.5434,341.136 82.71,334.969 87,325.5C 88.6667,324.267 90.1667,322.933 91.5,321.5 Z M 367.5,359.5 C 374.303,359.149 378.803,362.149 381,368.5C 381.667,384.5 381.667,400.5 381,416.5C 377.195,425.82 371.029,427.82 362.5,422.5C 360.703,420.869 359.536,418.869 359,416.5C 358.333,400.5 358.333,384.5 359,368.5C 360.351,363.985 363.185,360.985 367.5,359.5 Z M 96.5,389.5 C 164.834,389.333 233.167,389.5 301.5,390C 311.525,392.883 314.359,399.05 310,408.5C 308.786,410.049 307.286,411.215 305.5,412C 234.167,412.667 162.833,412.667 91.5,412C 83.1943,406.107 82.5276,399.44 89.5,392C 91.9269,391.098 94.2603,390.264 96.5,389.5 Z"/></g>
</svg>
