<?xml version="1.0" encoding="UTF-8"?>
<!DOCTYPE svg PUBLIC "-//W3C//DTD SVG 1.1//EN" "http://www.w3.org/Graphics/SVG/1.1/DTD/svg11.dtd">
<svg xmlns="http://www.w3.org/2000/svg" version="1.1" width="512px" height="512px" style="shape-rendering:geometricPrecision; text-rendering:geometricPrecision; image-rendering:optimizeQuality; fill-rule:evenodd; clip-rule:evenodd" xmlns:xlink="http://www.w3.org/1999/xlink">
<g><path style="opacity:0.983" fill="#ffffff" d="M 511.5,185.5 C 511.5,189.5 511.5,193.5 511.5,197.5C 508.682,204.157 503.682,207.324 496.5,207C 494.402,204.146 492.069,201.479 489.5,199C 412.133,187.975 334.633,177.808 257,168.5C 247.062,168.599 241.228,173.599 239.5,183.5C 240.96,192.126 245.96,197.293 254.5,199C 321.833,207.667 389.167,216.333 456.5,225C 459.007,225.093 461.174,225.926 463,227.5C 463.667,289.5 463.667,351.5 463,413.5C 460.193,420.487 455.027,423.82 447.5,423.5C 437.277,423.112 431.777,417.778 431,407.5C 430.5,351.168 430.333,294.834 430.5,238.5C 373.967,262.097 317.633,286.264 261.5,311C 257.5,311.667 253.5,311.667 249.5,311C 168.167,275.667 86.8333,240.333 5.5,205C 2.87922,202.886 0.879222,200.386 -0.5,197.5C -0.5,193.5 -0.5,189.5 -0.5,185.5C 2.04369,180.463 6.04369,176.963 11.5,175C 89.2833,141.609 166.95,107.942 244.5,74C 251.833,70.6667 259.167,70.6667 266.5,74C 346.249,108.472 425.916,143.139 505.5,178C 508.121,180.114 510.121,182.614 511.5,185.5 Z"/></g>
<g><path style="opacity:0.985" fill="#ffffff" d="M 98.5,280.5 C 100.927,280.523 103.26,281.023 105.5,282C 152.163,302.833 199.163,322.833 246.5,342C 256.1,343.283 265.433,342.283 274.5,339C 318.167,320 361.833,301 405.5,282C 408.827,279.867 411.994,280.034 415,282.5C 415.953,308.208 415.62,333.875 414,359.5C 408.478,376.683 398.645,390.85 384.5,402C 356.175,422.447 324.509,434.447 289.5,438C 245.082,443.659 202.082,438.326 160.5,422C 142.837,414.593 127.337,404.093 114,390.5C 102.167,377.493 95.8335,362.159 95,344.5C 94.3333,324.833 94.3333,305.167 95,285.5C 95.2572,283.093 96.4238,281.427 98.5,280.5 Z"/></g>
</svg>
