<?xml version="1.0" encoding="UTF-8"?>
<!DOCTYPE svg PUBLIC "-//W3C//DTD SVG 1.1//EN" "http://www.w3.org/Graphics/SVG/1.1/DTD/svg11.dtd">
<svg xmlns="http://www.w3.org/2000/svg" version="1.1" width="512px" height="512px" style="shape-rendering:geometricPrecision; text-rendering:geometricPrecision; image-rendering:optimizeQuality; fill-rule:evenodd; clip-rule:evenodd" xmlns:xlink="http://www.w3.org/1999/xlink">
<g><path style="opacity:0.978" fill="#ffffff" d="M 55.5,3.5 C 86.1261,1.54488 105.626,15.2115 114,44.5C 117.448,71.4445 106.948,90.6111 82.5,102C 57.4298,109.754 36.9298,103.254 21,82.5C 6.51915,54.2694 11.6858,30.4361 36.5,11C 42.604,7.58334 48.9373,5.08334 55.5,3.5 Z"/></g>
<g><path style="opacity:0.972" fill="#ffffff" d="M 187.5,3.5 C 229.835,3.33334 272.168,3.50001 314.5,4C 320.767,5.93371 324.601,10.1004 326,16.5C 326.667,41.5 326.667,66.5 326,91.5C 324.573,97.9253 320.74,102.092 314.5,104C 283.167,104.333 251.833,104.667 220.5,105C 217.624,105.438 214.957,106.438 212.5,108C 203.536,115.295 194.87,122.962 186.5,131C 182.031,133.623 178.531,132.79 176,128.5C 175.333,91.1667 175.333,53.8333 176,16.5C 177.589,10.0828 181.423,5.74947 187.5,3.5 Z M 213.5,30.5 C 238.836,30.3334 264.169,30.5 289.5,31C 297.282,33.0642 299.115,37.5642 295,44.5C 294.25,45.1258 293.416,45.6258 292.5,46C 265.5,46.6667 238.5,46.6667 211.5,46C 206.311,43.0868 205.144,38.9201 208,33.5C 209.876,32.3913 211.709,31.3913 213.5,30.5 Z M 211.5,61.5 C 225.504,61.3334 239.504,61.5001 253.5,62C 258.143,64.0724 259.643,67.5724 258,72.5C 256.891,74.8147 255.057,76.3147 252.5,77C 239.167,77.6667 225.833,77.6667 212.5,77C 207.076,74.983 205.242,71.1497 207,65.5C 208.397,63.9297 209.897,62.5964 211.5,61.5 Z"/></g>
<g><path style="opacity:0.978" fill="#ffffff" d="M 438.5,3.5 C 468.644,1.63121 488.144,14.9645 497,43.5C 500.782,70.774 490.282,90.274 465.5,102C 439.375,109.959 418.541,102.792 403,80.5C 390.194,52.8923 395.694,29.7257 419.5,11C 425.604,7.58334 431.937,5.08334 438.5,3.5 Z"/></g>
<g><path style="opacity:0.978" fill="#ffffff" d="M 31.5,130.5 C 45.5701,128.243 57.0701,132.576 66,143.5C 83.0411,171.75 100.208,199.917 117.5,228C 142.28,218.956 166.947,209.289 191.5,199C 211.534,191.896 226.367,197.729 236,216.5C 240.622,233.313 235.789,246.48 221.5,256C 187.5,269.667 153.5,283.333 119.5,297C 101.331,303.942 86.8314,299.442 76,283.5C 53.7487,247.333 31.7487,211 10,174.5C 4.10386,153.294 11.2705,138.627 31.5,130.5 Z"/></g>
<g><path style="opacity:0.978" fill="#ffffff" d="M 463.5,130.5 C 484.109,128.045 497.276,136.711 503,156.5C 504.206,167.219 501.539,176.886 495,185.5C 475,218.167 455,250.833 435,283.5C 429.557,292.927 421.39,298.427 410.5,300C 376.025,305.02 341.525,309.854 307,314.5C 284.066,311.562 273.733,298.562 276,275.5C 279.602,262.232 288.102,254.065 301.5,251C 330.273,247.128 358.94,242.795 387.5,238C 406.792,206.583 425.959,175.083 445,143.5C 449.99,137.275 456.157,132.941 463.5,130.5 Z"/></g>
<g><path style="opacity:0.987" fill="#ffffff" d="M -0.5,188.5 C 21.4764,223.102 42.9764,258.102 64,293.5C 68.3333,299.167 73.3333,304.167 79,308.5C 79.1691,315.191 79.6691,321.858 80.5,328.5C 105.171,331.501 129.838,334.667 154.5,338C 168.999,342.811 178.166,352.645 182,367.5C 182.5,414.165 182.667,460.832 182.5,507.5C 155.5,507.5 128.5,507.5 101.5,507.5C 101.5,475.833 101.5,444.167 101.5,412.5C 78.8049,410.33 56.1382,407.83 33.5,405C 16.3068,401.304 4.97348,391.137 -0.5,374.5C -0.5,312.5 -0.5,250.5 -0.5,188.5 Z"/></g>
<g><path style="opacity:0.987" fill="#ffffff" d="M 511.5,188.5 C 511.5,250.5 511.5,312.5 511.5,374.5C 506.027,391.137 494.693,401.304 477.5,405C 454.862,407.83 432.195,410.33 409.5,412.5C 409.5,444.167 409.5,475.833 409.5,507.5C 382.5,507.5 355.5,507.5 328.5,507.5C 328.333,460.832 328.5,414.165 329,367.5C 332.834,352.645 342.001,342.811 356.5,338C 381.179,334.795 405.845,331.629 430.5,328.5C 431.331,321.858 431.831,315.191 432,308.5C 437.667,304.167 442.667,299.167 447,293.5C 468.024,258.102 489.524,223.102 511.5,188.5 Z"/></g>
</svg>
